# xmcd
#
# Track frame offsets: 
#        150
#        17136
#        32006
#        47107
#        64093
#        78963
#
# Disc length: 1252 seconds
#
# Revision: 0
# Processed by: cddbd v1.5.2PL0 Copyright (c) Steve Scherf et al.
# Submitted via: ExactAudioCopy v1.3
#
DISCID=4304e206
DTITLE=John T. Graham - Snake Oil Salesman
DYEAR=2019
DGENRE=Electric Blues
TTITLE0=Snake Oil Salesman
TTITLE1=Can I Help It
TTITLE2=On A Roll
TTITLE3=Snake Oil Salesman (Instrumental)
TTITLE4=Can I Help It (Instrumental)
TTITLE5=On A Roll (Instrumental)
EXTD=
EXTT0=
EXTT1=
EXTT2=
EXTT3=
EXTT4=
EXTT5=
PLAYORDER=
